<mxfile host="app.diagrams.net" modified="2021-03-21T02:41:21.932Z" agent="5.0 (Windows NT 10.0; Win64; x64) AppleWebKit/537.36 (KHTML, like Gecko) Chrome/89.0.4389.90 Safari/537.36" etag="bE3SoiKNxxApR0F4rq14" version="14.4.9" type="github">
  <diagram id="6hDmCeLl36sOxqpx8Gur" name="Page-1">
    <mxGraphModel dx="1022" dy="449" grid="1" gridSize="10" guides="1" tooltips="1" connect="1" arrows="1" fold="1" page="1" pageScale="1" pageWidth="827" pageHeight="1169" math="0" shadow="0">
      <root>
        <mxCell id="0" />
        <mxCell id="1" parent="0" />
        <mxCell id="KYguSDnLwoc_5qvrTJ0h-1" value="Orden pedido de comida" style="swimlane;fontStyle=1;align=center;verticalAlign=top;childLayout=stackLayout;horizontal=1;startSize=26;horizontalStack=0;resizeParent=1;resizeParentMax=0;resizeLast=0;collapsible=1;marginBottom=0;" vertex="1" parent="1">
          <mxGeometry x="420" y="120" width="160" height="188" as="geometry" />
        </mxCell>
        <mxCell id="KYguSDnLwoc_5qvrTJ0h-14" value="+ tipodeServicio: String()" style="text;strokeColor=none;fillColor=none;align=left;verticalAlign=top;spacingLeft=4;spacingRight=4;overflow=hidden;rotatable=0;points=[[0,0.5],[1,0.5]];portConstraint=eastwest;" vertex="1" parent="KYguSDnLwoc_5qvrTJ0h-1">
          <mxGeometry y="26" width="160" height="26" as="geometry" />
        </mxCell>
        <mxCell id="KYguSDnLwoc_5qvrTJ0h-2" value="+resumenPedido: String()&#xa;" style="text;strokeColor=none;fillColor=none;align=left;verticalAlign=top;spacingLeft=4;spacingRight=4;overflow=hidden;rotatable=0;points=[[0,0.5],[1,0.5]];portConstraint=eastwest;" vertex="1" parent="KYguSDnLwoc_5qvrTJ0h-1">
          <mxGeometry y="52" width="160" height="24" as="geometry" />
        </mxCell>
        <mxCell id="KYguSDnLwoc_5qvrTJ0h-3" value="+tipoServicio: String&#xa;" style="text;strokeColor=none;fillColor=none;align=left;verticalAlign=top;spacingLeft=4;spacingRight=4;overflow=hidden;rotatable=0;points=[[0,0.5],[1,0.5]];portConstraint=eastwest;" vertex="1" parent="KYguSDnLwoc_5qvrTJ0h-1">
          <mxGeometry y="76" width="160" height="26" as="geometry" />
        </mxCell>
        <mxCell id="KYguSDnLwoc_5qvrTJ0h-4" value="+identificacionCliente: Int&#xa;" style="text;strokeColor=none;fillColor=none;align=left;verticalAlign=top;spacingLeft=4;spacingRight=4;overflow=hidden;rotatable=0;points=[[0,0.5],[1,0.5]];portConstraint=eastwest;" vertex="1" parent="KYguSDnLwoc_5qvrTJ0h-1">
          <mxGeometry y="102" width="160" height="26" as="geometry" />
        </mxCell>
        <mxCell id="KYguSDnLwoc_5qvrTJ0h-5" value="" style="line;strokeWidth=1;fillColor=none;align=left;verticalAlign=middle;spacingTop=-1;spacingLeft=3;spacingRight=3;rotatable=0;labelPosition=right;points=[];portConstraint=eastwest;" vertex="1" parent="KYguSDnLwoc_5qvrTJ0h-1">
          <mxGeometry y="128" width="160" height="8" as="geometry" />
        </mxCell>
        <mxCell id="KYguSDnLwoc_5qvrTJ0h-6" value="+estimarTiempoPreparacion()&#xa;" style="text;strokeColor=none;fillColor=none;align=left;verticalAlign=top;spacingLeft=4;spacingRight=4;overflow=hidden;rotatable=0;points=[[0,0.5],[1,0.5]];portConstraint=eastwest;" vertex="1" parent="KYguSDnLwoc_5qvrTJ0h-1">
          <mxGeometry y="136" width="160" height="26" as="geometry" />
        </mxCell>
        <mxCell id="KYguSDnLwoc_5qvrTJ0h-7" value="+imprimirResumen()" style="text;strokeColor=none;fillColor=none;align=left;verticalAlign=top;spacingLeft=4;spacingRight=4;overflow=hidden;rotatable=0;points=[[0,0.5],[1,0.5]];portConstraint=eastwest;" vertex="1" parent="KYguSDnLwoc_5qvrTJ0h-1">
          <mxGeometry y="162" width="160" height="26" as="geometry" />
        </mxCell>
        <mxCell id="KYguSDnLwoc_5qvrTJ0h-8" value="Cliente" style="swimlane;fontStyle=1;align=center;verticalAlign=top;childLayout=stackLayout;horizontal=1;startSize=26;horizontalStack=0;resizeParent=1;resizeParentMax=0;resizeLast=0;collapsible=1;marginBottom=0;" vertex="1" parent="1">
          <mxGeometry x="100" y="120" width="160" height="138" as="geometry" />
        </mxCell>
        <mxCell id="KYguSDnLwoc_5qvrTJ0h-9" value="+ Nombre: String()" style="text;strokeColor=none;fillColor=none;align=left;verticalAlign=top;spacingLeft=4;spacingRight=4;overflow=hidden;rotatable=0;points=[[0,0.5],[1,0.5]];portConstraint=eastwest;" vertex="1" parent="KYguSDnLwoc_5qvrTJ0h-8">
          <mxGeometry y="26" width="160" height="26" as="geometry" />
        </mxCell>
        <mxCell id="KYguSDnLwoc_5qvrTJ0h-10" value="+ Correo: String()" style="text;strokeColor=none;fillColor=none;align=left;verticalAlign=top;spacingLeft=4;spacingRight=4;overflow=hidden;rotatable=0;points=[[0,0.5],[1,0.5]];portConstraint=eastwest;" vertex="1" parent="KYguSDnLwoc_5qvrTJ0h-8">
          <mxGeometry y="52" width="160" height="26" as="geometry" />
        </mxCell>
        <mxCell id="KYguSDnLwoc_5qvrTJ0h-11" value="+ Telefono: int()" style="text;strokeColor=none;fillColor=none;align=left;verticalAlign=top;spacingLeft=4;spacingRight=4;overflow=hidden;rotatable=0;points=[[0,0.5],[1,0.5]];portConstraint=eastwest;" vertex="1" parent="KYguSDnLwoc_5qvrTJ0h-8">
          <mxGeometry y="78" width="160" height="26" as="geometry" />
        </mxCell>
        <mxCell id="KYguSDnLwoc_5qvrTJ0h-12" value="+ Direccion: String()" style="text;strokeColor=none;fillColor=none;align=left;verticalAlign=top;spacingLeft=4;spacingRight=4;overflow=hidden;rotatable=0;points=[[0,0.5],[1,0.5]];portConstraint=eastwest;" vertex="1" parent="KYguSDnLwoc_5qvrTJ0h-8">
          <mxGeometry y="104" width="160" height="26" as="geometry" />
        </mxCell>
        <mxCell id="KYguSDnLwoc_5qvrTJ0h-13" value="" style="line;strokeWidth=1;fillColor=none;align=left;verticalAlign=middle;spacingTop=-1;spacingLeft=3;spacingRight=3;rotatable=0;labelPosition=right;points=[];portConstraint=eastwest;" vertex="1" parent="KYguSDnLwoc_5qvrTJ0h-8">
          <mxGeometry y="130" width="160" height="8" as="geometry" />
        </mxCell>
        <mxCell id="KYguSDnLwoc_5qvrTJ0h-15" value="" style="endArrow=diamondThin;endFill=1;endSize=24;html=1;entryX=1.008;entryY=0.077;entryDx=0;entryDy=0;entryPerimeter=0;" edge="1" parent="1" target="KYguSDnLwoc_5qvrTJ0h-11">
          <mxGeometry width="160" relative="1" as="geometry">
            <mxPoint x="420" y="200" as="sourcePoint" />
            <mxPoint x="240" y="220.52095808383228" as="targetPoint" />
          </mxGeometry>
        </mxCell>
        <mxCell id="KYguSDnLwoc_5qvrTJ0h-16" value="&lt;pre style=&quot;margin-top: 0px ; margin-bottom: 0px&quot;&gt;&lt;span style=&quot;color: rgb(0 , 0 , 0)&quot;&gt;Seleccionar tipo de servicio (&lt;/span&gt;&lt;span style=&quot;color: rgb(0 , 0 , 0)&quot;&gt;Express&lt;/span&gt;&lt;span style=&quot;color: rgb(0 , 0 , 0)&quot;&gt; o restaurante&lt;/span&gt;&lt;/pre&gt;" style="html=1;" vertex="1" parent="1">
          <mxGeometry x="170" y="30" width="360" height="50" as="geometry" />
        </mxCell>
      </root>
    </mxGraphModel>
  </diagram>
</mxfile>
